<svg version="1.1" xmlns="http://www.w3.org/2000/svg" viewBox="0 0 1780.750401721478 1154.3636180470448" width="1780.750401721478" height="1154.3636180470448"><!-- svg-source:excalidraw --><metadata><!-- payload-type:application/vnd.excalidraw+json --><!-- payload-version:2 --><!-- payload-start -->eyJ2ZXJzaW9uIjoiMSIsImVuY29kaW5nIjoiYnN0cmluZyIsImNvbXByZXNzZWQiOnRydWUsImVuY29kZWQiOiJ4nHVSXWvbMFx1MDAxNH3vrzDu6+pIlm3ZgTH2UUZcdTAwMWWWPWQwxlx1MDAxOEOxblx1MDAxMi2yZSQlaVx1MDAxN/LfJymt1aTMXHUwMDA2gc49uud+nONNkqT2cYB0mqTw0DIpuGaH9I3H96CNUL1cdTAwMGLl4W7UTreBubF2MNPJpGN6XHUwMDBidpCshWwvzI5JY3dcXKisVd1EWOjMO3/OWVx1MDAwN29cdTAwMDfVcauzKHJcdTAwMDdcXFilz1ogoYPeXHUwMDFhl/2nuyfJMZwuXCK4V/z2I8fvZ/v9sio+mz+rXHUwMDAyf4X57/A0kJ5b0NBa1q8lxNCDw+9IVedcdTAwMTmpKUZlXtRcYpNyjD+GeF6WWZ3XTYNpTlFJ6Vx1MDAxOD9cYm43joNphTJaolx1MDAwMjlcbi5oPTI2INZcdTAwMWLrKZhcdTAwMTRcdTAwMTmpSIVrVFBUXHUwMDE0kXMuapqgXHUwMDExMVarLXxU0o3AVX6Lwf+x7iVrt2utdj1cdTAwMWY5VrPeXGZMu0FF3kpIubCPIbtbkZtteqXx/bmDK/x/r5zoetODMVx1MDAxN/WqgbXC+mlhXHUwMDE0UV/hMONhb79iTdptfOZcdTAwMTfX76RcdTAwMWNh0XPw60hcdTAwMTm6UOv5k9pcdTAwMDXbXHUwMDAw+FxmXHLFXHLKK9KMgehL0rxC56pcdTAwMGZcdTAwMWXFhFRNU9SRIMwn5zJcdTAwMWKSrpxTIY7al3D/woGxk93A2flcdKaUNG73qMpJ3KtcdTAwMTT99rpwqdptVFx06MmdIWnKhmFhXUpcdTAwMTc+W9yNUPCF+OuR/GmwZ8zC4LDyXHUwMDA19EVxuO/ZUl43ke5cdTAwMDVcdTAwMWM+vHbM7Sp8qSOdgrxzXHUwMDBi+Fx1MDAxNo+nm9M/TqhcdTAwMGUjIn0=<!-- payload-end --></metadata><defs><style class="style-fonts">
      </style></defs><rect x="0" y="0" width="1780.750401721478" height="1154.3636180470448" fill="#ffffff"></rect><g stroke-linecap="round" transform="translate(10 10) rotate(0 880.375200860739 567.1818090235224)"><path d="M0 0 C480.8 0, 961.59 0, 1760.75 0 M0 0 C623.89 0, 1247.78 0, 1760.75 0 M1760.75 0 C1760.75 260.25, 1760.75 520.49, 1760.75 1134.36 M1760.75 0 C1760.75 340.51, 1760.75 681.01, 1760.75 1134.36 M1760.75 1134.36 C1216.74 1134.36, 672.74 1134.36, 0 1134.36 M1760.75 1134.36 C1110.83 1134.36, 460.9 1134.36, 0 1134.36 M0 1134.36 C0 727.59, 0 320.81, 0 0 M0 1134.36 C0 882.06, 0 629.77, 0 0" stroke="#1e1e1e" stroke-width="1" fill="none"></path></g></svg>